<svg width="64" height="67" viewBox="0 0 64 67" fill="none" xmlns="http://www.w3.org/2000/svg">
<g clip-path="url(#clip0_214_3)">
<path d="M33.6467 35.4243C34.8878 34.2474 34.9298 32.7865 34.7937 31.4356C34.5794 29.5591 34.1618 27.6852 33.5663 25.9213C30.6099 17.8674 25.0272 12.1334 17.3297 8.48515C15.3693 7.56457 13.2448 6.90942 10.9625 6.06478C12.5206 4.40501 14.918 3.90756 16.62 2.28186C15.7175 1.81459 14.9802 2.1472 14.3615 2.40647C11.8277 3.48022 9.28247 4.60198 6.77385 5.78313C5.5732 6.36105 5.32945 6.96266 5.98824 8.03153C7.33105 10.2767 9.22818 11.8923 11.643 12.819C11.7389 12.8418 11.917 12.7318 12.2023 12.5964C12.1635 10.4065 9.41151 10.2621 8.87281 8.25802C12.3646 8.27326 15.3942 9.59912 18.2596 11.1904C21.2575 12.8638 24.0433 14.7913 26.3228 17.3596C28.5657 19.8686 30.1672 22.7328 31.5679 25.8032C33.028 28.8368 33.641 32.0249 33.6467 35.4243Z" fill="white"/>
</g>
<path d="M13.221 37.8378C12.8096 37.9635 12.5044 38.1124 12.1929 38.321C11.4631 38.8355 10.9293 39.7809 11.2003 40.9919C11.3788 41.8191 11.968 42.4119 12.7545 42.7359C13.0642 42.8891 13.7576 43.1792 13.8896 43.5309C14.0486 43.9699 13.7277 44.3826 13.4727 44.5127C12.9721 44.7979 12.381 44.5669 11.8038 44.6631C11.4477 44.7222 11.2166 44.8547 11.1544 45.1016C11.118 45.2184 11.081 45.4558 11.2456 45.7265C11.5968 46.1737 12.3857 46.0153 12.8775 46.0428C13.7662 45.9673 14.4395 45.5313 14.7855 45.1092C15.0066 44.8428 15.2445 44.3007 15.3155 43.9703C15.4805 43.2034 15.0797 42.4252 14.6123 42.0503C13.932 41.5203 12.6236 41.4552 12.5154 40.1889C12.477 39.7505 13.0121 39.2517 13.6188 39.219C14.0189 39.2007 14.2282 39.6209 14.3607 39.852C14.5121 40.1333 14.6648 40.632 14.9619 40.6753C15.4261 40.7362 15.7935 40.1112 15.7463 39.7563C15.7457 39.6476 15.5798 39.1596 15.4673 38.9668C15.2165 38.0234 13.8623 37.5915 13.221 37.8378ZM17.1715 42.078C17.6093 42.1602 18.167 41.6758 19.0771 41.6267C19.3478 41.6913 19.6883 42.3546 19.3473 42.729C19.1313 42.9476 18.1125 42.7681 17.5089 42.8857C17.1634 42.958 16.7194 43.1647 16.5348 43.3142C16.2446 43.5491 15.8904 43.9342 15.9552 44.5805C15.9622 44.8588 16.1745 45.1345 16.3693 45.348C16.8354 45.9641 17.3499 46.2354 18.0251 46.5839C18.2192 46.6888 18.6998 46.8237 18.9064 46.8092C19.1966 46.8035 19.5521 46.4065 19.6607 46.1766C19.9194 45.5522 20.1077 44.9084 20.3117 44.23C20.4712 43.6314 20.7405 42.7909 20.6895 42.0134C20.6592 41.3827 20.3137 40.7672 19.9004 40.5669C19.1661 40.3208 18.5549 40.51 17.7629 40.8129C17.3635 40.9398 16.8862 41.1189 16.8957 41.6025C16.9089 41.8211 16.9535 41.9706 17.1715 42.078ZM18.2954 43.8974C18.5234 43.9093 18.9832 43.8973 19.1246 44.0449C19.0807 44.4626 18.9571 45.2942 18.5771 45.3508C18.013 45.2071 17.1562 44.8636 17.217 44.1702C17.4211 43.9503 17.8394 43.8736 18.2954 43.8974ZM23.0551 45.1699C23.0342 44.5644 22.9305 43.6003 22.8487 43.0005C22.8085 42.6946 22.7568 42.0376 22.6205 41.8423C22.3786 41.5031 21.7631 41.6194 21.5446 41.8619C21.4893 41.9285 21.3424 42.1785 21.4253 42.5371C21.4317 43.1652 21.9081 44.8322 22.0697 45.9351C22.1338 46.4728 22.159 46.9219 22.5202 47.0443C23.11 47.2873 23.6394 46.4983 23.9352 46.095C24.9104 44.7375 25.3029 44.103 25.7971 43.4189C26.0665 43.037 26.444 42.775 26.3214 42.2192C26.2378 41.7519 25.7598 41.593 25.3873 41.8073C24.9515 42.0511 24.7587 42.622 24.429 43.1183C23.9712 43.6855 23.5311 44.5442 23.0551 45.1699ZM27.8024 45.8016C28.0988 45.7362 28.6032 45.6445 28.9844 45.5759C29.5497 45.4785 29.8418 45.3403 30.3989 45.2057C30.7324 45.1322 31.0018 44.7503 31.0118 44.4255C31.0344 44.2107 30.9175 43.7158 30.849 43.5638C30.4625 42.3045 29.5203 41.8556 28.3081 42.1384C27.8156 42.2314 27.2297 42.6404 26.8868 43.1474C26.4497 43.6323 26.2394 44.3704 26.3583 45.4206C26.5777 46.433 26.8516 46.8118 27.7769 47.3072C28.3516 47.6934 29.5375 47.6612 30.1926 47.2836C30.413 47.1378 30.5116 46.7741 30.2779 46.472C29.8532 46.1499 29.4513 46.7592 28.6693 46.5081C28.1555 46.3455 27.8565 46.2055 27.8024 45.8016ZM28.0395 43.546C28.8553 43.0164 29.5663 43.1394 29.7813 44.079C29.7003 44.2756 29.3329 44.4421 29.0521 44.473C28.6256 44.5126 27.8726 44.6748 27.6615 44.6164C27.5886 44.3915 27.7028 43.764 28.0395 43.546ZM36.6172 41.1053C36.1065 41.2567 36.0935 42.1844 35.9567 42.7975C35.6661 44.0701 35.5099 45.4413 35.115 46.7874C34.9631 47.3144 34.6536 48.3075 35.2641 48.4682C35.5813 48.5498 36.0687 48.2752 36.2276 48.0265C36.4599 47.6527 36.4353 46.8538 36.5596 46.36C36.7818 45.394 37.0014 43.9933 37.2418 42.9688C37.3516 42.4977 37.6989 41.8343 37.5883 41.509C37.4651 41.0737 36.9161 41.016 36.6172 41.1053ZM41.6818 41.722C39.5104 41.8317 38.7425 43.7419 38.43 45.338C38.2021 46.0138 37.9819 47.5351 38.7325 48.0846C39.237 48.4514 39.97 48.9387 40.9832 48.8279C43.7166 48.5361 44.4258 44.7736 43.8986 43.4754C43.6228 42.7707 42.8953 41.6565 41.6818 41.722ZM40.2324 44.0312C40.4861 43.6838 41.0595 43.1649 41.5275 43.19C42.1386 43.2301 42.694 44.1451 42.7073 44.593C42.7439 45.6224 42.0997 47.3888 40.9767 47.5121C40.537 47.5624 39.8366 47.2233 39.6858 46.8213C39.4797 46.2567 39.7106 44.7486 40.2324 44.0312ZM51.5963 42.4745C50.9764 42.518 50.8232 42.8276 50.4696 43.3214C49.9151 44.1198 49.4963 44.7756 48.982 45.6507C48.6856 46.1745 48.4231 46.6055 48.1041 47.1149C47.9114 47.4566 47.4397 47.9259 47.4172 48.37C47.4003 48.875 47.8695 49.1174 48.3946 48.9433C48.9687 48.7623 49.3781 47.8521 49.6707 47.364C50.168 46.5355 50.703 45.5781 51.3203 44.6415C51.5922 44.2357 52.3684 43.2796 52.2622 42.7979C52.2075 42.5146 51.9738 42.4418 51.5963 42.4745ZM47.2052 42.1216C46.6116 42.1437 45.9258 42.4698 45.684 42.8184C45.3003 43.3693 45.2502 44.5345 45.7616 44.9502C47.2799 46.2319 49.2017 44.9377 48.9842 43.5634C48.8848 42.9014 48.0054 42.085 47.2052 42.1216ZM47.6947 44.0071C47.5234 44.8337 46.1848 43.9087 47.0351 43.3948C47.4403 43.3288 47.7826 43.6302 47.6947 44.0071ZM52.3174 46.2908C51.6283 46.3028 50.7629 46.7307 50.4571 47.2295C50.0043 47.9783 50.1182 49.0762 50.6791 49.3644C51.2055 49.6369 52.1577 49.5319 52.6507 49.3182C53.0552 49.1436 53.5733 48.6912 53.6826 48.3407C54.0366 47.2679 52.9467 46.2725 52.3174 46.2908ZM52.4451 47.9452C52.4 48.3748 51.9968 48.5376 51.6299 48.3542C50.8296 47.9323 52.5536 47.0275 52.4451 47.9452ZM8.06409 57.422C8.81906 57.3566 9.42836 57.5292 10.0809 57.1755C10.746 56.9317 11.4928 56.3707 11.8331 55.8876C12.397 55.1143 12.3466 53.9869 11.9094 53.3255C11.2108 52.3954 10.3628 52.1977 9.17562 52.0126C8.68381 51.985 7.94578 52.004 7.68079 52.4588C7.35935 53.4506 7.06498 54.759 6.88424 55.7898C6.76064 56.6214 6.65083 57.3218 6.53288 58.2143C6.46701 58.7263 6.24664 59.3305 6.66373 59.495C7.31324 59.7443 7.68499 59.1921 7.80863 58.5897C7.90027 58.1771 7.93475 57.7342 8.06409 57.422ZM10.6911 55.2729C10.2478 56.0468 9.13799 56.3886 8.13928 56.2475C8.15802 55.6099 8.40534 54.6344 8.6194 53.8606C8.77258 53.3216 8.73613 53.2092 9.28887 53.2311C10.4207 53.2535 11.3272 54.1573 10.6911 55.2729ZM14.3574 56.4546C14.6538 56.3892 15.1582 56.2974 15.5394 56.2289C16.1047 56.1315 16.3968 55.9932 16.9539 55.8587C17.2874 55.7852 17.5568 55.4032 17.5668 55.0785C17.5894 54.8637 17.4725 54.3688 17.404 54.2168C17.0175 52.9575 16.0753 52.5085 14.8631 52.7914C14.3706 52.8844 13.7847 53.2934 13.4418 53.8003C13.0047 54.2853 12.7944 55.0234 12.9133 56.0735C13.1327 57.086 13.4066 57.4647 14.3319 57.9602C14.9066 58.3464 16.0925 58.3141 16.7476 57.9365C16.968 57.7908 17.0666 57.4271 16.8329 57.125C16.4082 56.8029 16.0063 57.4122 15.2243 57.1611C14.7105 56.9985 14.4115 56.8584 14.3574 56.4546ZM14.5945 54.199C15.4103 53.6694 16.1213 53.7924 16.3363 54.732C16.2553 54.9286 15.8879 55.0951 15.6071 55.1259C15.1806 55.1656 14.4276 55.3277 14.2165 55.2694C14.1436 55.0445 14.2578 54.417 14.5945 54.199ZM20.0265 53.0565C19.9317 52.9259 19.7482 52.8342 19.568 52.8274C18.921 52.7835 18.8997 53.2156 18.6995 54.0875C18.4905 55.0429 18.2854 56.6502 18.099 57.6201C18.0368 57.8669 17.9602 58.1364 17.9929 58.2846C18.0375 58.4341 18.2731 58.6037 18.4509 58.6344C18.9018 58.7059 19.1311 58.7059 19.2931 58.3127C19.489 57.8265 19.6188 56.4767 19.7136 55.9195C19.7349 55.7166 20.6041 55.253 21.1085 55.1612C21.3189 55.1109 21.8458 55.0336 22.1027 55.0002C22.3477 54.9656 22.8181 54.7376 22.7967 54.2527C22.7728 54.0209 22.5027 53.8356 22.2545 53.7854C21.8312 53.6806 21.3218 53.8201 20.987 53.9056C20.6761 53.9936 20.2302 54.3328 19.9419 54.206C20.0072 53.8147 20.1152 53.4761 20.0265 53.0565ZM27.9229 56.167C27.8758 55.8121 28.4942 54.1758 28.0438 53.7544C27.9238 53.6332 27.6506 53.5924 27.5118 53.6502C26.9591 53.8576 26.919 54.4687 26.8123 55.2539C26.7521 55.5975 26.6648 56.083 26.5632 56.5912C26.4483 57.11 26.3787 57.6577 26.3002 58.0597C26.201 58.544 26.095 58.9793 26.3305 59.1489C26.453 59.2462 26.86 59.2769 27.0623 59.1896C27.2896 59.0928 27.4944 58.7524 27.6896 58.3868C28.0249 57.7222 28.3948 57.3025 28.7867 56.7887C28.9971 56.5091 29.1829 56.1184 29.5353 56.0951C29.6949 56.6428 29.381 57.3338 29.2272 57.9933C29.165 58.2402 29.0753 58.5203 29.0828 58.678C29.1225 59.3337 29.8775 59.2683 30.2719 58.9598C30.7837 58.5672 31.2497 57.8077 31.6296 57.2926C31.7596 57.0891 31.9254 56.8893 32.1647 56.7938C32.198 57.28 32.0455 57.6983 31.9419 58.1097C31.8528 58.4985 31.6851 59.0601 31.7235 59.4985C31.7902 60.2416 32.6683 60.1528 32.9239 59.6729C33.0589 59.4217 33.148 58.8036 33.2227 58.4374C33.3024 58.0235 33.3714 57.5963 33.4605 57.2075C33.5973 56.5945 34.0349 55.0719 33.5324 54.8019C32.9262 54.4848 32.4163 55.2034 32.1293 55.5231C31.9516 55.7217 31.696 55.9723 31.517 56.1828C31.338 56.3932 31.1282 56.5521 30.7747 56.8166C30.8831 55.6697 30.8955 54.1748 29.7103 54.5449C29.2486 54.6895 28.8028 55.258 28.5013 55.6003C28.3381 55.7762 28.063 56.0972 27.9229 56.167ZM36.6933 54.7962C36.3052 54.8158 36.1004 54.927 35.7914 55.1117C35.3003 55.4221 35.2268 55.5471 34.9072 55.9478C34.3005 56.6684 34.025 58.027 34.566 58.9647C34.8744 59.3591 35.5265 59.8138 36.1288 59.9374C36.8481 60.0974 37.4184 59.9523 37.9032 59.7016C38.7511 59.2115 39.3966 58.3503 39.3645 57.3937C39.4773 55.8611 38.4564 54.6678 36.6933 54.7962ZM35.5689 57.8032C35.5285 57.0388 36.218 55.9891 36.875 55.9375C37.7267 55.8701 38.3487 56.8405 38.0285 57.8204C37.8647 58.3461 37.3038 58.7457 36.9226 58.8142C36.1136 58.9343 35.6029 58.398 35.5689 57.8032ZM41.5875 57.6877C41.5139 56.8956 42.0884 55.4477 41.1148 55.5264C40.5545 55.5761 40.5013 56.4272 40.4059 57.105C40.281 57.9485 40.0852 58.664 39.9138 59.4906C39.7513 60.2337 39.5265 60.9943 40.4046 60.9056C40.7331 60.8798 41.2361 59.8829 41.4766 59.5462C41.8973 58.9872 41.8125 58.9903 42.492 58.2654C42.7658 57.9563 43.0522 57.5279 43.4272 57.519C43.4423 58.0636 43.3475 58.3915 43.2157 58.9568C43.0707 59.5328 42.9446 60.159 42.9189 60.7476C43.1482 61.2061 43.9798 61.1004 44.1776 60.711C44.2392 60.5847 44.2215 60.2933 44.2441 60.0784C44.3476 59.2085 44.789 57.8793 44.8039 57.0484C44.8083 56.6627 44.6637 56.2011 44.5293 56.1025C44.0965 55.7433 43.5972 56.0166 43.263 56.2107C42.8247 56.4783 42.4504 56.8251 42.1464 57.1914C41.9938 57.3804 41.8236 57.5073 41.5875 57.6877ZM48.7658 56.1978C48.7198 55.3725 48.9685 55.0729 49.1185 54.4491C49.2698 54.0427 49.374 53.7399 48.7736 53.713C47.8257 53.6617 47.8384 54.4594 47.6583 55.1403C47.5817 55.4097 47.4467 56.1195 47.2288 56.2414C47.0241 56.3526 46.2018 56.2541 45.945 56.2875C45.6962 56.3578 45.4683 56.5752 45.4086 56.7982C45.3276 56.9948 45.3723 57.3736 45.6091 57.5312C45.9376 57.7346 46.8119 57.4525 47.0419 57.7904C46.9214 58.4775 46.8517 59.0252 46.7325 59.4712C46.698 59.6848 46.4594 60.5767 46.401 60.7878C46.3571 60.9762 45.9867 61.975 46.0382 62.1735C46.1042 62.3493 46.4748 62.4969 46.7411 62.4887C47.3466 62.4678 47.5574 61.1507 47.6836 60.7537C47.7445 60.5187 47.9604 59.6124 48.0094 59.3762C48.0753 59.0935 48.3006 57.7537 48.5474 57.5866C48.7823 57.4182 49.7521 57.6046 50.1422 57.4526C50.4066 57.3476 50.5862 57.0166 50.5484 56.6868C50.488 56.1134 49.0233 56.5024 48.7658 56.1978ZM52.9567 56.9882C52.8361 56.9876 53.0948 56.134 53.2071 55.639C53.2793 55.2967 53.5625 54.7835 53.3759 54.3777C53.2766 54.1743 52.9657 54.033 52.6849 54.0638C52.1354 54.1267 52.0331 55.214 51.88 55.9822C51.7306 56.7146 51.58 57.2296 51.4049 58.0921C51.1299 59.3301 50.9422 59.8534 50.6798 60.9721C50.5248 61.6435 50.4678 62.3012 50.9853 62.428C51.7309 62.5667 51.7924 61.9819 51.916 61.3795C52.1464 60.4505 52.1815 59.8871 52.4615 59.0598C52.6003 58.7727 52.7974 58.5039 53.0323 58.3355C53.2433 58.1646 53.526 58.0013 53.9198 58.0427C54.1039 58.243 53.9131 59.5985 53.895 59.8862C53.7488 61.1619 53.5178 62.2115 53.6265 62.4401C53.7352 62.6687 54.249 62.8313 54.5405 62.5844C54.8702 62.3174 54.9184 61.5141 54.9855 60.761C55.0608 60.0449 55.2051 59.131 55.2307 58.5424C55.2695 57.714 55.1199 56.8415 54.6061 56.6789C53.917 56.4617 53.5798 57.0296 52.9567 56.9882Z" fill="white"/>
<defs>
<clipPath id="clip0_214_3">
<rect width="28.3944" height="34.4457" fill="white" transform="matrix(0.230386 -0.973099 -0.973099 -0.230386 34.2469 35.5664)"/>
</clipPath>
</defs>
</svg>
