<svg width="99" height="68" viewBox="0 0 99 68" fill="none" xmlns="http://www.w3.org/2000/svg">
<g clip-path="url(#clip0_155_8)">
<path d="M40.3527 37.0051C39.4772 35.5357 38.0612 35.174 36.7134 35.01C34.8356 34.8069 32.9158 34.8027 31.0641 34.9963C22.5576 36.1116 15.7374 40.2985 10.4876 47.0067C9.15889 48.717 8.05311 50.6458 6.72781 52.6868C5.45079 50.8022 5.49205 48.3541 4.27988 46.3366C3.62579 47.1145 3.78834 47.9068 3.9054 48.5673C4.39639 51.2751 4.93173 54.0045 5.53305 56.7113C5.83314 58.0096 6.36653 58.3795 7.55399 57.9716C10.0393 57.1547 12.0321 55.6587 13.4666 53.5064C13.5098 53.4178 13.4416 53.22 13.3723 52.9119C11.2273 52.4687 10.482 55.1218 8.40852 55.2072C9.19034 51.804 11.1492 49.1396 13.331 46.6937C15.622 44.1365 18.1143 41.8421 21.1206 40.1824C24.0609 38.5454 27.207 37.6121 30.51 36.9199C33.7902 36.1618 37.0351 36.264 40.3527 37.0051Z" fill="black"/>
</g>
<path d="M14.674 5.05708C14.2669 4.56784 14.2178 3.88698 13.9696 3.14899C13.8684 2.84877 13.7471 2.51024 13.6152 2.15852C13.5517 1.95879 13.4008 1.32757 13.257 1.20385C12.7909 0.817011 11.9901 1.43268 11.9399 1.91005C11.9111 2.18454 12.0732 2.4791 12.1863 2.78057C12.29 3.05693 12.4125 3.38352 12.4961 3.62156C12.6796 4.17176 13.0101 4.7012 13.154 5.28344C13.2338 5.55728 13.4116 5.81729 13.4914 6.09113C13.619 6.59925 13.5594 7.0515 13.4546 7.70412C13.3668 8.31026 12.7967 9.831 13.5146 10.003C13.9166 10.0814 14.2677 9.84082 14.3726 9.64672C14.4234 9.50727 14.5044 9.0814 14.5533 8.84522C14.6475 8.40867 14.7341 8.04373 14.7925 7.60341C14.8395 7.27051 14.9186 6.74791 15.0021 6.52743C15.0724 6.31763 15.2501 6.11912 15.4303 5.89674C15.5723 5.69447 15.7129 5.50413 15.8655 5.31504C16.6285 4.36962 17.0229 4.06116 17.8488 3.2068C18.0252 3.02022 18.652 2.56726 18.5672 2.11189C18.4861 1.62072 17.8711 1.61642 17.6639 1.7515C17.5728 1.81432 17.3467 2.12841 17.2362 2.26159C17.11 2.42932 16.948 2.59328 16.8268 2.71327C16.3225 3.26357 15.9105 3.73911 15.4301 4.29192C15.1971 4.55702 15.0138 4.92386 14.674 5.05708ZM19.0306 4.45316C18.6425 4.4727 18.4377 4.5839 18.1287 4.76861C17.6376 5.07898 17.5641 5.20398 17.2445 5.60477C16.6378 6.3253 16.3623 7.68395 16.9032 8.62163C17.2117 9.01603 17.8638 9.47068 18.4661 9.59432C19.1853 9.75438 19.7556 9.60919 20.2405 9.3585C21.0884 8.86844 21.7339 8.00721 21.7017 7.0506C21.8146 5.518 20.7937 4.32475 19.0306 4.45316ZM17.9061 7.4601C17.8658 6.69569 18.5553 5.64602 19.2123 5.59441C20.064 5.52707 20.686 6.4974 20.3658 7.4773C20.202 8.00305 19.6411 8.40261 19.2599 8.47114C18.4509 8.59123 17.9402 8.05491 17.9061 7.4601ZM23.7631 5.55387C22.7298 5.397 22.5415 6.2701 22.3972 7.18402C22.3476 7.5408 22.2491 8.36301 22.2542 8.77379C22.2688 9.66821 22.8084 10.1593 23.4366 10.3822C25.1608 10.853 25.9301 10.0772 26.4537 8.76873C26.6484 8.29448 26.7764 7.76496 26.8385 7.28885C26.9107 6.71726 26.9922 5.71227 26.6674 5.47301C26.4664 5.31916 25.8691 5.37704 25.736 5.72503C25.5991 6.10883 25.581 7.08428 25.4781 7.60437C25.3495 8.25448 24.9118 9.31857 24.4269 9.34C23.0099 9.50479 23.6384 7.54373 23.8329 6.61096C23.9196 6.24602 24.064 5.79062 23.7631 5.55387ZM32.407 3.22866C31.8932 3.29532 31.5604 4.16531 32.1195 4.35679C32.5736 4.51312 33.2192 4.1104 33.1538 3.58468C33.1136 3.2788 32.775 3.17082 32.407 3.22866ZM32.0475 6.07468C31.5708 6.13317 31.5036 6.65702 31.4051 7.02071C31.3637 7.18528 31.2312 7.8712 31.1854 8.19217C31.0794 9.08599 30.8993 9.76688 30.6871 10.6375C30.3789 11.8479 30.0783 13.4452 29.1764 13.7607C28.9013 13.8524 27.9798 13.7797 27.902 14.2904C27.8255 14.7891 28.4806 15.0993 29.0063 15.0339C29.1891 15.0169 29.4856 14.9515 29.6746 14.8749C29.8888 14.7888 30.108 14.6549 30.2374 14.572C30.5225 14.3848 31.0318 13.7868 31.1969 13.4783C31.3489 13.1806 31.4154 12.7773 31.5535 12.3816C31.6615 12.043 31.7481 11.6781 31.8335 11.3251C31.9948 10.5939 32.2076 9.832 32.3306 9.12096C32.4254 8.56382 32.5164 8.04247 32.6193 7.52238C32.6758 7.2146 32.8535 6.78683 32.7466 6.42568C32.6762 6.17696 32.3666 6.02375 32.0475 6.07468ZM34.8349 6.71756C33.8016 6.5607 33.6133 7.4338 33.469 8.34772C33.4194 8.70449 33.3209 9.5267 33.326 9.93748C33.3406 10.8319 33.8802 11.323 34.5084 11.5459C36.2326 12.0167 37.0019 11.2409 37.5256 9.93243C37.7202 9.45818 37.8483 8.92866 37.9104 8.45254C37.9825 7.88095 38.064 6.87597 37.7392 6.63671C37.5382 6.48285 36.9409 6.54073 36.8078 6.88873C36.6709 7.27252 36.6529 8.24798 36.5499 8.76807C36.4213 9.41818 35.9837 10.4823 35.4988 10.5037C34.0818 10.6685 34.7102 8.70743 34.9048 7.77466C34.9914 7.40971 35.1358 6.95431 34.8349 6.71756ZM40.8616 6.74769C40.2096 6.75156 39.5915 6.89172 39.1067 7.37167C38.9171 7.56893 38.8022 8.08777 38.7935 8.40057C38.7766 8.90557 39.2364 9.35208 39.6108 9.69309C39.9199 9.96689 40.6875 10.4699 40.562 10.9755C39.7431 11.8789 39.3755 10.8991 38.7022 11.1058C38.5778 11.141 38.4208 11.2573 38.3856 11.3622C38.2143 11.9595 38.365 12.1322 39.3556 12.4656C39.7752 12.6062 40.4416 12.5797 40.7996 12.3881C41.2977 12.1267 41.7323 11.6656 41.8251 11.0118C41.9418 10.1311 41.2426 9.55088 40.7935 9.11755C40.6948 9.02272 40.1069 8.64721 40.1659 8.31556C40.2299 7.93617 40.6231 7.8689 41.2606 8.1169C41.488 8.2494 41.9931 8.7248 42.2518 8.55893C42.3787 8.49987 42.6664 8.28878 42.6632 7.97473C42.6593 7.55201 42.2253 7.20474 41.768 6.96361C41.5393 6.84305 40.9225 6.74202 40.8616 6.74769ZM46.4638 7.46923C46.4178 6.6439 46.6665 6.34425 46.8165 5.72052C46.9678 5.31411 47.072 5.01134 46.4715 4.98443C45.5237 4.93307 45.5364 5.73077 45.3562 6.41167C45.2797 6.68114 45.1447 7.39092 44.9268 7.51281C44.722 7.62402 43.8998 7.52553 43.6429 7.55886C43.3942 7.62925 43.1663 7.84661 43.1066 8.0696C43.0256 8.26621 43.0703 8.64495 43.3071 8.80257C43.6356 9.00603 44.5099 8.72387 44.7399 9.06176C44.6194 9.74893 44.5497 10.2966 44.4305 10.7426C44.3959 10.9562 44.1574 11.8481 44.099 12.0592C44.0551 12.2476 43.6847 13.2464 43.7362 13.4449C43.8022 13.6207 44.1728 13.7683 44.4391 13.7601C45.0446 13.7392 45.2554 12.4221 45.3816 12.0251C45.4425 11.7901 45.6584 10.8838 45.7074 10.6476C45.7733 10.3649 45.9986 9.02513 46.2454 8.85801C46.4803 8.68964 47.4501 8.87604 47.8401 8.72397C48.1046 8.61904 48.2841 8.288 48.2464 7.95825C48.186 7.38479 46.7213 7.77382 46.4638 7.46923ZM53.4341 10.4461C53.3605 9.6541 53.935 8.20622 52.9614 8.28489C52.4011 8.3346 52.3479 9.18569 52.2525 9.86344C52.1277 10.707 51.9318 11.4225 51.7605 12.2491C51.5979 12.9921 51.3732 13.7528 52.2512 13.6641C52.5797 13.6383 53.0827 12.6414 53.3232 12.3047C53.7439 11.7456 53.6592 11.7488 54.3387 11.0239C54.6125 10.7148 54.8988 10.2864 55.2738 10.2775C55.289 10.8221 55.1942 11.15 55.0623 11.7153C54.9173 12.2913 54.7912 12.9175 54.7655 13.5061C54.9949 13.9646 55.8265 13.8589 56.0243 13.4694C56.0858 13.3432 56.0682 13.0517 56.0907 12.8369C56.1942 11.967 56.6356 10.6378 56.6505 9.80684C56.6549 9.42118 56.5103 8.95955 56.3759 8.86095C55.9431 8.50174 55.4438 8.77505 55.1096 8.96919C54.6713 9.23683 54.297 9.58361 53.993 9.94984C53.8404 10.1389 53.6702 10.2658 53.4341 10.4461ZM58.8134 12.6405C59.1099 12.5751 59.6143 12.4833 59.9955 12.4148C60.5608 12.3173 60.8528 12.1791 61.4099 12.0446C61.7435 11.9711 62.0129 11.5891 62.0229 11.2644C62.0454 11.0496 61.9285 10.5546 61.86 10.4026C61.4736 9.14335 60.5313 8.6944 59.3191 8.97724C58.8267 9.07028 58.2407 9.47927 57.8979 9.98621C57.4608 10.4712 57.2505 11.2092 57.3694 12.2594C57.5887 13.2719 57.8626 13.6506 58.7879 14.146C59.3627 14.5322 60.5486 14.5 61.2036 14.1224C61.4241 13.9767 61.5226 13.613 61.2889 13.3109C60.8643 12.9887 60.4624 13.5981 59.6803 13.3469C59.1665 13.1843 58.8675 13.0443 58.8134 12.6405ZM59.0505 10.3849C59.8663 9.85525 60.5774 9.97825 60.7923 10.9179C60.7113 11.1145 60.3439 11.281 60.0632 11.3118C59.6367 11.3514 58.8836 11.5136 58.6726 11.4552C58.5997 11.2304 58.7139 10.6029 59.0505 10.3849ZM64.1629 13.2027C64.4593 13.1373 64.9637 13.0455 65.3449 12.977C65.9102 12.8796 66.2023 12.7413 66.7594 12.6068C67.0929 12.5333 67.3623 12.1514 67.3723 11.8266C67.3949 11.6118 67.278 11.1169 67.2095 10.9649C66.823 9.7056 65.8808 9.25665 64.6686 9.53949C64.1761 9.63253 63.5902 10.0415 63.2473 10.5485C62.8102 11.0334 62.5999 11.7715 62.7188 12.8217C62.9382 13.8341 63.2121 14.2128 64.1374 14.7083C64.7121 15.0945 65.898 15.0623 66.5531 14.6847C66.7735 14.5389 66.8721 14.1752 66.6384 13.8731C66.2137 13.551 65.8118 14.1603 65.0298 13.9092C64.516 13.7466 64.217 13.6066 64.1629 13.2027ZM64.3999 10.9471C65.2158 10.4175 65.9268 10.5405 66.1418 11.4801C66.0608 11.6767 65.6934 11.8432 65.4126 11.8741C64.9861 11.9137 64.233 12.0759 64.022 12.0175C63.9491 11.7926 64.0633 11.1651 64.3999 10.9471ZM71.1879 16.5353C71.7363 16.7136 72.0968 16.4981 72.2211 16.0044C72.4502 15.0873 72.5059 13.7538 72.6684 12.5522C72.8196 11.6873 73.0361 10.6603 73.2043 9.74887C73.3487 9.06421 73.7492 7.77903 73.1506 7.61959C72.9659 7.53985 72.5646 7.57006 72.4647 7.71642C72.1263 8.29622 72.2226 10.0197 71.6813 10.349C70.9175 10.2687 70.2391 10.2939 69.5966 10.5522C69.015 10.8047 68.5867 11.2062 68.2558 11.7144C67.9851 12.1082 67.7811 12.7866 67.883 13.4248C67.9873 14.039 68.5584 14.6903 69.0534 15.0319C69.5949 15.3905 70.2311 15.4212 70.8725 15.6334C71.0013 15.9003 70.9272 16.3751 71.1879 16.5353ZM71.3331 13.0876C71.2584 13.4538 71.1901 14.2188 71.0431 14.4688C70.4684 14.5411 69.6386 14.0557 69.3402 13.5659C68.8476 12.7419 69.5553 11.6338 70.4472 11.643C71.0012 11.653 71.3027 11.5399 71.4579 11.7855C71.5151 12.0449 71.409 12.7094 71.3331 13.0876ZM79.2497 10.7824C78.8615 10.802 78.6568 10.9132 78.3478 11.0979C77.8567 11.4083 77.7832 11.5333 77.4635 11.934C76.8569 12.6546 76.5814 14.0132 77.1223 14.9509C77.4308 15.3453 78.0828 15.8 78.6852 15.9236C79.4044 16.0837 79.9747 15.9385 80.4596 15.6878C81.3074 15.1977 81.953 14.3365 81.9208 13.3799C82.0336 11.8473 81.0128 10.654 79.2497 10.7824ZM78.1252 13.7894C78.0849 13.025 78.7744 11.9753 79.4314 11.9237C80.2831 11.8563 80.9051 12.8267 80.5849 13.8066C80.4211 14.3323 79.8602 14.7319 79.479 14.8004C78.67 14.9205 78.1592 14.3842 78.1252 13.7894ZM84.1438 13.6739C84.0702 12.8818 84.6447 11.4339 83.6712 11.5126C83.1109 11.5623 83.0576 12.4134 82.9623 13.0912C82.8374 13.9347 82.6416 14.6502 82.4702 15.4768C82.3076 16.2199 82.0829 16.9805 82.961 16.8918C83.2895 16.866 83.7924 15.8692 84.033 15.5325C84.4537 14.9734 84.3689 14.9765 85.0484 14.2516C85.3222 13.9425 85.6086 13.5141 85.9835 13.5052C85.9987 14.0498 85.9039 14.3777 85.7721 14.943C85.6271 15.519 85.5009 16.1453 85.4753 16.7338C85.7046 17.1923 86.5362 17.0866 86.734 16.6972C86.7955 16.5709 86.7779 16.2795 86.8005 16.0647C86.904 15.1947 87.3453 13.8656 87.3603 13.0346C87.3646 12.6489 87.2201 12.1873 87.0856 12.0887C86.6528 11.7295 86.1535 12.0028 85.8194 12.1969C85.381 12.4646 85.0067 12.8113 84.7028 13.1776C84.5502 13.3667 84.38 13.4936 84.1438 13.6739ZM89.5232 15.8682C89.8196 15.8028 90.324 15.711 90.7053 15.6425C91.2705 15.5451 91.5626 15.4068 92.1197 15.2723C92.4532 15.1988 92.7226 14.8168 92.7326 14.4921C92.7552 14.2773 92.6383 13.7824 92.5698 13.6304C92.1833 12.3711 91.2411 11.9221 90.0289 12.205C89.5364 12.298 88.9505 12.707 88.6076 13.2139C88.1705 13.6989 87.9602 14.437 88.0791 15.4871C88.2985 16.4996 88.5724 16.8783 89.4977 17.3738C90.0725 17.76 91.2583 17.7277 91.9134 17.3501C92.1338 17.2044 92.2324 16.8407 91.9987 16.5386C91.574 16.2165 91.1721 16.8258 90.3901 16.5747C89.8763 16.4121 89.5773 16.272 89.5232 15.8682ZM89.7603 13.6126C90.5761 13.083 91.2871 13.206 91.5021 14.1456C91.4211 14.3422 91.0537 14.5087 90.7729 14.5395C90.3464 14.5792 89.5934 14.7413 89.3823 14.683C89.3094 14.4581 89.4236 13.8306 89.7603 13.6126ZM35.4662 18.3794C35.4202 17.5541 35.6689 17.2545 35.8189 16.6307C35.9702 16.2243 36.0745 15.9216 35.474 15.8946C34.5262 15.8433 34.5389 16.641 34.3587 17.3219C34.2821 17.5913 34.1472 18.3011 33.9292 18.423C33.7245 18.5342 32.9023 18.4357 32.6454 18.4691C32.3967 18.5395 32.1687 18.7568 32.1091 18.9798C32.0281 19.1764 32.0727 19.5552 32.3095 19.7128C32.6381 19.9162 33.5124 19.6341 33.7423 19.972C33.6218 20.6591 33.5522 21.2069 33.4329 21.6528C33.3984 21.8664 33.1599 22.7583 33.1015 22.9694C33.0575 23.1578 32.6871 24.1566 32.7386 24.3551C32.8046 24.5309 33.1752 24.6785 33.4416 24.6703C34.047 24.6494 34.2579 23.3323 34.3841 22.9353C34.445 22.7004 34.6609 21.794 34.7098 21.5578C34.7757 21.2751 35.001 19.9353 35.2478 19.7682C35.4827 19.5999 36.4526 19.7862 36.8426 19.6342C37.107 19.5292 37.2866 19.1982 37.2489 18.8685C37.1885 18.295 35.7238 18.684 35.4662 18.3794ZM38.5952 19.9752C39.033 20.0575 39.5907 19.5731 40.5008 19.524C40.7715 19.5886 41.112 20.2518 40.771 20.6263C40.555 20.8449 39.5362 20.6654 38.9326 20.7829C38.5871 20.8552 38.1431 21.0619 37.9585 21.2115C37.6683 21.4464 37.3141 21.8315 37.3789 22.4778C37.3859 22.7561 37.5982 23.0318 37.793 23.2453C38.2591 23.8614 38.7736 24.1327 39.4489 24.4812C39.643 24.586 40.1235 24.721 40.3301 24.7065C40.6203 24.7008 40.9758 24.3038 41.0844 24.0739C41.3431 23.4495 41.5314 22.8057 41.7354 22.1273C41.8949 21.5287 42.1642 20.6882 42.1132 19.9106C42.083 19.28 41.7374 18.6645 41.3241 18.4642C40.5898 18.2181 39.9786 18.4073 39.1867 18.7101C38.7872 18.8371 38.3099 19.0162 38.3194 19.4998C38.3326 19.7184 38.3772 19.8679 38.5952 19.9752ZM39.7191 21.7947C39.9471 21.8066 40.4069 21.7946 40.5483 21.9422C40.5044 22.3599 40.3808 23.1915 40.0008 23.2481C39.4367 23.1044 38.5799 22.7609 38.6407 22.0675C38.8448 21.8476 39.2631 21.7709 39.7191 21.7947ZM44.5185 19.4274C44.4883 19.026 44.5542 18.7434 44.6364 18.3056C44.7425 17.8703 44.9584 17.1931 44.817 16.8163C44.6405 16.3151 43.9332 16.3856 43.6927 16.7223C43.4817 17.1224 43.3732 18.0401 43.2766 18.5005C43.0443 19.562 42.7518 20.7379 42.5366 21.9822C42.4406 22.5513 42.2039 23.3107 42.2084 23.8421C42.2097 24.2887 42.3348 24.8207 42.9013 24.9406C43.2663 25.0272 44.2731 24.7469 44.5746 24.6338C45.1009 24.4478 45.5738 24.1958 46.058 23.8365C46.6886 23.3477 47.4039 22.6265 47.4659 21.6919C47.521 20.7083 46.7302 20.0822 45.8991 19.838C45.4305 19.7043 44.8106 19.7477 44.5185 19.4274ZM43.7137 22.2628C43.8003 21.6686 43.9553 20.9971 44.2718 20.7408C45.0972 20.6948 46.1889 21.0992 46.1664 21.7725C46.1438 22.2166 45.5277 22.6827 45.1968 22.9617C44.8501 23.2751 43.81 23.7571 43.452 23.7194L43.7137 22.2628ZM52.7974 22.4453C52.7238 21.6533 53.2983 20.2054 52.3248 20.2841C51.7645 20.3338 51.7112 21.1849 51.6159 21.8626C51.491 22.7062 51.2952 23.4216 51.1238 24.2483C50.9612 24.9913 50.7365 25.752 51.6146 25.6633C51.9431 25.6375 52.446 24.6406 52.6866 24.3039C53.1073 23.7448 53.0225 23.748 53.702 23.023C53.9758 22.714 54.2622 22.2855 54.6371 22.2767C54.6523 22.8213 54.5575 23.1492 54.4257 23.7145C54.2807 24.2905 54.1545 24.9167 54.1289 25.5053C54.3582 25.9637 55.1898 25.8581 55.3876 25.4686C55.4491 25.3424 55.4315 25.0509 55.4541 24.8361C55.5576 23.9662 55.9989 22.637 56.0139 21.806C56.0182 21.4204 55.8737 20.9587 55.7392 20.8601C55.3064 20.5009 54.8071 20.7742 54.473 20.9684C54.0346 21.236 53.6603 21.5828 53.3564 21.949C53.2038 22.1381 53.0336 22.265 52.7974 22.4453ZM58.9751 20.7176C58.587 20.7371 58.3822 20.8483 58.0732 21.0331C57.5821 21.3434 57.5086 21.4684 57.189 21.8692C56.5823 22.5897 56.3068 23.9484 56.8477 24.8861C57.1562 25.2805 57.8083 25.7351 58.4106 25.8588C59.1298 26.0188 59.7001 25.8736 60.185 25.6229C61.0329 25.1329 61.6784 24.2716 61.6463 23.315C61.7591 21.7824 60.7382 20.5892 58.9751 20.7176ZM57.8507 23.7245C57.8103 22.9601 58.4998 21.9105 59.1568 21.8588C60.0085 21.7915 60.6305 22.7618 60.3103 23.7417C60.1465 24.2675 59.5856 24.6671 59.2044 24.7356C58.3954 24.8557 57.8847 24.3193 57.8507 23.7245ZM63.7019 25.5461C63.5266 25.2623 63.5622 24.349 63.5785 23.7353C63.5998 23.3032 63.8722 22.089 63.7434 21.8221C63.5945 21.5168 62.967 21.4026 62.6969 21.6759C62.3333 22.0358 62.3342 23.9786 62.3487 24.4145C62.3884 25.0702 62.3986 25.8918 62.6292 26.3383C62.9364 26.9739 63.8321 26.9474 64.3458 26.6515C64.6165 26.4869 65.2213 25.6696 65.2891 25.713C65.3808 25.7588 65.6636 26.7417 65.849 26.9301C66.2397 27.3453 66.8973 27.1731 67.4205 26.9023C68.6106 26.2551 69.7912 24.2073 69.9064 22.1923C69.6783 21.7219 69.0069 21.7961 68.7727 22.0731C68.5523 22.4482 68.3797 23.516 68.1267 24.2013C67.8555 24.945 66.9976 25.9891 66.7269 25.9244C66.4216 25.8441 66.3849 24.1268 66.0746 23.6357C65.8873 23.3505 65.5683 23.4015 65.317 23.4957C64.905 23.742 64.3771 25.4361 63.7019 25.5461Z" fill="black"/>
<defs>
<clipPath id="clip0_155_8">
<rect width="28.3944" height="34.4457" fill="white" transform="matrix(-0.898735 -0.438492 -0.438492 0.898735 40.6232 36.4507)"/>
</clipPath>
</defs>
</svg>
