<svg xmlns="http://www.w3.org/2000/svg" width="94" height="65" fill="none" viewBox="0 0 94 65"><g clip-path="url(#clip0_155_12)"><path fill="#000" d="M47.7772 36.0242C46.5092 34.8763 46.4335 33.4168 46.5384 32.0631C46.7092 30.1822 47.0834 28.2991 47.638 26.5219C50.4075 18.4019 55.8562 12.5404 63.4674 8.71524C65.406 7.74961 67.5148 7.04555 69.7769 6.14839C68.1809 4.52507 65.7726 4.08315 64.0335 2.49721C64.925 2.00922 65.6698 2.3247 66.2943 2.56961C68.8523 3.58452 71.4227 4.64716 73.958 5.77003C75.1716 6.32005 75.4292 6.91587 74.7953 7.99968C73.5047 10.2753 71.6454 11.9343 69.2527 12.9166C69.1573 12.9415 68.9768 12.8357 68.6884 12.707C68.6765 10.5167 71.4245 10.3087 71.9167 8.29277C68.4262 8.38869 65.4281 9.7842 62.6002 11.4413C59.6418 13.1835 56.9012 15.1748 54.6817 17.7951C52.4974 20.3552 50.9625 23.2558 49.6331 26.3576C48.2435 29.4242 47.7044 32.6256 47.7772 36.0242Z"/></g><path fill="#000" d="M21.6358 42.5381C20.9865 42.5973 20.3826 42.7894 19.9403 43.3088C19.7681 43.5214 19.6977 44.0481 19.7155 44.3606C19.7416 44.8652 20.2376 45.271 20.6397 45.579C20.9709 45.8256 21.7784 46.2616 21.6962 46.7761C20.957 47.7457 20.5075 46.8006 19.8542 47.0638C19.7333 47.1094 19.5867 47.2386 19.5606 47.3461C19.4405 47.9558 19.6054 48.1151 20.6207 48.3632C21.0508 48.4677 21.7125 48.3847 22.053 48.1634C22.527 47.8607 22.9209 47.3644 22.9579 46.705C22.9994 45.8176 22.2535 45.2988 21.7692 44.9052C21.6628 44.819 21.0451 44.4948 21.0757 44.1593C21.1073 43.7759 21.4934 43.6755 22.1497 43.8685C22.3875 43.9812 22.9311 44.412 23.1749 44.2248C23.2962 44.1551 23.5649 43.9204 23.5351 43.6077C23.4954 43.1869 23.0334 42.8777 22.5573 42.6763C22.3192 42.5756 21.696 42.5273 21.6358 42.5381ZM26.2619 42.6293C25.8767 42.6817 25.6822 42.8099 25.39 43.0202C24.927 43.3711 24.8644 43.5019 24.5799 43.9284C24.0366 44.6978 23.8774 46.075 24.496 46.9633C24.8369 47.3301 25.5252 47.7278 26.1359 47.7998C26.8661 47.8983 27.422 47.7052 27.8838 47.4142C28.687 46.854 29.2571 45.941 29.1438 44.9906C29.1262 43.454 28.0077 42.3517 26.2619 42.6293ZM25.3967 45.7209C25.2916 44.9626 25.8895 43.8582 26.5398 43.751C27.3827 43.6116 28.0848 44.5257 27.849 45.5292C27.7303 46.067 27.2055 46.5127 26.8314 46.6133C26.0355 46.8017 25.4811 46.3106 25.3967 45.7209ZM31.2597 39.8234C30.4389 40.0592 30.4966 41.3926 30.393 42.3868C30.2446 43.8241 30.0796 44.8891 29.8825 46.3615C29.8112 46.9362 29.4085 48.4885 29.8119 48.7245C30.1556 48.9474 30.6783 48.6096 30.8299 48.2285C30.9308 47.9785 31.0695 47.033 31.1124 46.6858C31.3031 44.9252 31.5256 43.3813 31.6938 41.5482C31.7678 40.8416 32.1045 39.588 31.2597 39.8234ZM33.5663 43.3735C32.5234 43.305 32.4099 44.1909 32.3437 45.1138C32.3246 45.4735 32.2963 46.3011 32.3362 46.7099C32.4267 47.5999 33.006 48.0434 33.6508 48.2121C35.4088 48.5349 36.1095 47.6965 36.5202 46.3484C36.6738 45.8593 36.7565 45.3208 36.7779 44.8412C36.8013 44.2655 36.7972 43.2572 36.4533 43.0464C36.2399 42.9102 35.6497 43.0186 35.5466 43.3766C35.4428 43.7706 35.5076 44.7441 35.4492 45.271C35.3762 45.9297 35.0305 47.0271 34.5492 47.0896C33.1513 47.3741 33.611 45.3668 33.7256 44.4209C33.781 44.0499 33.8862 43.5839 33.5663 43.3735ZM40.507 43.0424C40.3911 42.2239 40.6134 41.9042 40.7099 41.27C40.8262 40.8522 40.9043 40.5417 40.3038 40.5659C39.355 40.5952 39.4354 41.3889 39.3136 42.0826C39.2602 42.3576 39.186 43.0763 38.9792 43.2163C38.7847 43.3445 37.9571 43.3161 37.7039 43.3711C37.4621 43.4624 37.2534 43.6983 37.2129 43.9256C37.1489 44.1283 37.2255 44.5019 37.4749 44.6389C37.8195 44.8137 38.6667 44.4583 38.9245 44.7755C38.8627 45.4704 38.8399 46.0221 38.7589 46.4766C38.7426 46.6923 38.5807 47.6013 38.5404 47.8165C38.5126 48.008 38.2283 49.0346 38.2965 49.228C38.3772 49.3976 38.759 49.5131 39.0236 49.4824C39.6252 49.4102 39.7234 48.0799 39.8155 47.6736C39.8562 47.4344 39.9944 46.5129 40.0231 46.2734C40.0648 45.9862 40.1755 44.6321 40.4073 44.4447C40.627 44.257 41.6092 44.3604 41.9849 44.1757C42.2394 44.0487 42.3903 43.7036 42.3247 43.3783C42.2158 42.812 40.7895 43.324 40.507 43.0424ZM44.0554 41.5641C43.7301 41.6297 43.4353 41.9719 43.4642 42.3325C43.5219 43.0538 44.8097 42.8752 44.8121 42.1431C44.8087 41.7109 44.477 41.4884 44.0554 41.5641ZM43.9072 43.6015C43.3304 43.6382 43.1374 44.2945 43.0413 44.9047C42.9297 45.6947 42.8047 46.5564 42.6924 47.3823C42.6232 47.849 42.5057 48.3268 42.7057 48.5348C42.9877 48.8404 43.7363 48.6151 43.9109 48.2825C44.0358 48.0329 44.0131 47.3604 44.0456 46.9289C44.0968 46.1618 44.2302 45.4803 44.3757 44.799C44.4538 44.4885 44.5677 44.1907 44.5348 44.034C44.481 43.7209 44.0756 43.5809 43.9072 43.6015ZM47.2695 43.0437C46.8844 43.0962 46.6898 43.2243 46.3976 43.4346C45.9346 43.7856 45.872 43.9163 45.5875 44.3428C45.0443 45.1123 44.8851 46.4894 45.5037 47.3778C45.8445 47.7445 46.5328 48.1422 47.1435 48.2143C47.8737 48.3127 48.4296 48.1196 48.8914 47.8287C49.6946 47.2684 50.2648 46.3555 50.1515 45.405C50.1338 43.8684 49.0153 42.7661 47.2695 43.0437ZM46.4043 46.1353C46.2993 45.3771 46.8972 44.2726 47.5474 44.1654C48.3903 44.026 49.0924 44.9401 48.8566 45.9436C48.738 46.4814 48.2131 46.9271 47.839 47.0277C47.0432 47.2161 46.4887 46.7251 46.4043 46.1353ZM52.3914 45.5092C52.2508 44.7263 52.7003 43.2349 51.737 43.3959C51.183 43.493 51.2021 44.3456 51.1647 45.0289C51.1119 45.8801 50.9774 46.6096 50.8769 47.4477C50.778 48.2019 50.6186 48.9789 51.486 48.816C51.8111 48.7624 52.2277 47.7264 52.4387 47.3705C52.8105 46.7777 52.7263 46.7881 53.3418 46.0081C53.5883 45.6769 53.8373 45.2257 54.2102 45.185C54.2715 45.7264 54.2049 46.0611 54.1215 46.6356C54.026 47.2218 53.9534 47.8565 53.9778 48.4451C54.2453 48.8825 55.0649 48.7066 55.2289 48.3017C55.2795 48.1707 55.2372 47.8818 55.2414 47.6659C55.2707 46.7903 55.5976 45.4285 55.542 44.5992C55.5136 44.2146 55.3304 43.7669 55.188 43.68C54.7263 43.3589 54.252 43.6736 53.9356 43.8954C53.5215 44.1993 53.178 44.5766 52.9062 44.9673C52.7702 45.1686 52.6114 45.3095 52.3914 45.5092ZM61.8699 46.4884C62.2336 46.3035 62.6874 46.4205 63.145 46.3455C63.5785 46.27 63.6791 45.4318 63.1427 45.2412C62.5464 45.0494 62.3384 45.2494 61.9576 45.0858C61.7718 44.7701 61.9446 43.3092 62.0237 42.9507C62.1553 42.3652 62.3572 41.253 62.9211 41.2641C63.2571 41.2707 63.3323 41.7163 63.4355 41.9584C63.5388 42.2004 63.6397 42.5625 63.8674 42.579C64.1417 42.6684 64.5515 42.5805 64.6543 42.2345C64.7548 42.0084 64.7172 41.4796 64.4865 41.0069C64.1751 40.3646 63.644 39.9101 62.8126 40.0737C61.9572 40.2369 61.501 40.852 61.1243 41.6967C60.7854 42.4462 60.6766 43.0922 60.5624 44.0141C60.5215 44.2653 60.5833 44.7827 60.4725 44.9245C60.3369 45.1019 60.4703 45.0325 60.1342 45.0379C59.822 45.0437 59.4705 45.2168 59.4168 45.5038C59.3782 45.6351 59.3269 45.8021 59.4914 45.9854C59.903 46.4136 59.8717 46.1729 60.4568 46.3285C60.611 47.0276 60.3711 48.2351 60.5263 48.8863C60.6265 49.2844 61.5016 49.3377 61.6791 48.8611C61.8829 48.265 61.7075 46.8092 61.8699 46.4884ZM66.5197 43.4235C66.1345 43.4759 65.94 43.6041 65.6478 43.8144C65.1848 44.1653 65.1222 44.2961 64.8377 44.7226C64.2944 45.492 64.1352 46.8691 64.7538 47.7575C65.0947 48.1243 65.783 48.5219 66.3936 48.594C67.1239 48.6924 67.6798 48.4993 68.1416 48.2084C68.9448 47.6481 69.5149 46.7352 69.4016 45.7848C69.3839 44.2481 68.2655 43.1459 66.5197 43.4235ZM65.6545 46.515C65.5494 45.7568 66.1473 44.6524 66.7976 44.5452C67.6405 44.4058 68.3426 45.3198 68.1068 46.3233C67.9881 46.8611 67.4632 47.3068 67.0892 47.4075C66.2933 47.5958 65.7389 47.1048 65.6545 46.515ZM71.64 43.5365C71.5344 43.4144 71.3438 43.3386 71.1636 43.3471C70.5153 43.3583 70.5308 43.7907 70.4053 44.6764C70.2781 45.646 70.2102 47.265 70.1068 48.2472C70.0658 48.4984 70.0124 48.7734 70.0575 48.9183C70.1147 49.0635 70.3638 49.2124 70.5435 49.228C70.999 49.261 71.2274 49.2415 71.3554 48.8359C71.5093 48.3348 71.5241 46.9789 71.5712 46.4157C71.5752 46.2117 72.4019 45.6759 72.8967 45.5417C73.1021 45.4737 73.6206 45.3519 73.8737 45.2969C74.1148 45.2416 74.5642 44.9744 74.5017 44.4931C74.4582 44.2642 74.1733 44.1026 73.9218 44.0736C73.4911 44.0051 72.9954 44.1873 72.6691 44.3009C72.3668 44.415 71.9513 44.7909 71.6533 44.689C71.6851 44.2935 71.7639 43.947 71.64 43.5365ZM11.8259 60.9122C12.3875 61.0433 12.7284 60.7979 12.8103 60.2955C12.9607 59.3622 12.903 58.0288 12.9629 56.8178C13.0402 55.9431 13.1687 54.9015 13.2589 53.9791C13.3447 53.2846 13.6346 51.9701 13.0247 51.862C12.8339 51.7983 12.4365 51.8624 12.3495 52.0168C12.0615 52.6232 12.3038 54.3323 11.7923 54.7063C11.0245 54.6912 10.3507 54.7739 9.73244 55.0857C9.17439 55.3868 8.78171 55.8231 8.49511 56.3576C8.25887 56.773 8.11317 57.4663 8.26883 58.0935C8.42496 58.6967 9.04924 59.2971 9.57146 59.5954C10.1414 59.9067 10.778 59.8833 11.435 60.0403C11.586 60.2953 11.5526 60.7747 11.8259 60.9122ZM11.6779 57.4646C11.6346 57.8358 11.6314 58.6039 11.5062 58.8655C10.9397 58.9863 10.0717 58.5731 9.73278 58.1103C9.17204 57.3311 9.78312 56.167 10.6726 56.1005C11.2254 56.0634 11.5162 55.9251 11.6917 56.1566C11.7707 56.4102 11.7215 57.0814 11.6779 57.4646ZM15.2423 52.998C14.9169 53.0636 14.6221 53.4059 14.651 53.7665C14.7088 54.4878 15.9966 54.3091 15.999 53.577C15.9955 53.1449 15.6639 52.9223 15.2423 52.998ZM15.0941 55.0355C14.5172 55.0721 14.3242 55.7284 14.2282 56.3387C14.1166 57.1286 13.9916 57.9903 13.8793 58.8163C13.81 59.283 13.6926 59.7608 13.8925 59.9687C14.1746 60.2744 14.9231 60.0491 15.0977 59.7165C15.2227 59.4669 15.1999 58.7943 15.2325 58.3629C15.2836 57.5957 15.4171 56.9142 15.5625 56.233C15.6407 55.9224 15.7546 55.6246 15.7217 55.4679C15.6678 55.1548 15.2625 55.0148 15.0941 55.0355ZM18.5403 54.4793C17.891 54.5385 17.2871 54.7307 16.8448 55.2501C16.6726 55.4627 16.6022 55.9894 16.62 56.3018C16.6461 56.8064 17.1422 57.2123 17.5442 57.5203C17.8754 57.7669 18.6829 58.2029 18.6008 58.7174C17.8615 59.687 17.412 58.7419 16.7587 59.0051C16.6378 59.0507 16.4912 59.1798 16.4651 59.2873C16.345 59.8971 16.5099 60.0564 17.5252 60.3045C17.9553 60.409 18.617 60.326 18.9575 60.1047C19.4315 59.802 19.8254 59.3056 19.8624 58.6462C19.9039 57.7589 19.158 57.2401 18.6737 56.8464C18.5673 56.7603 17.9496 56.4361 17.9802 56.1006C18.0118 55.7172 18.3979 55.6168 19.0542 55.8097C19.292 55.9224 19.8356 56.3533 20.0794 56.166C20.2008 56.0964 20.4694 55.8617 20.4396 55.549C20.3999 55.1281 19.9379 54.819 19.4618 54.6175C19.2237 54.5168 18.6006 54.4685 18.5403 54.4793ZM25.4882 59.1653C25.2257 58.476 24.69 58.8615 24.0043 58.944C23.0778 59.0577 22.5119 58.5425 22.309 57.8783C22.1178 57.2264 22.8784 56.3893 23.7444 56.2983C24.069 56.2687 24.3906 56.3951 24.8 56.3312C25.1248 56.2896 25.4326 55.8996 25.3338 55.4295C25.2342 55.0075 24.0109 54.9593 23.626 54.9997C22.5921 55.0874 21.7406 55.6587 21.2785 56.5738C21.0646 57.0736 20.9177 57.8269 21.0748 58.3821C21.4729 59.4942 22.3125 60.1348 23.5477 60.1832C24.6631 60.2292 25.7166 59.7579 25.4882 59.1653ZM28.3802 54.6735C27.9951 54.7259 27.8005 54.8541 27.5083 55.0643C27.0453 55.4153 26.9827 55.5461 26.6982 55.9725C26.155 56.742 25.9958 58.1191 26.6144 59.0075C26.9552 59.3743 27.6435 59.7719 28.2542 59.844C28.9844 59.9424 29.5403 59.7493 30.0021 59.4584C30.8053 58.8981 31.3755 57.9852 31.2622 57.0348C31.2445 55.4981 30.126 54.3958 28.3802 54.6735ZM27.5151 57.765C27.41 57.0068 28.0079 55.9023 28.6581 55.7951C29.501 55.6557 30.2031 56.5698 29.9673 57.5733C29.8487 58.1111 29.3238 58.5568 28.9497 58.6575C28.1539 58.8458 27.5994 58.3548 27.5151 57.765ZM33.7607 58.6323C33.6886 58.0308 33.5033 57.079 33.3709 56.4882C33.3049 56.1869 33.1977 55.5366 33.0453 55.3536C32.7755 55.0362 32.172 55.2043 31.9749 55.4645C31.9254 55.5355 31.8003 55.7971 31.9134 56.1474C31.9731 56.7727 32.5892 58.3932 32.8439 59.4784C32.9534 60.0087 33.0166 60.454 33.3869 60.5453C33.9953 60.7374 34.4557 59.9063 34.7162 59.4793C35.5727 58.044 35.9099 57.3785 36.3442 56.6549C36.5802 56.2515 36.9341 55.9584 36.7648 55.415C36.6418 54.9564 36.152 54.8388 35.7991 55.0839C35.3855 55.3637 35.2419 55.949 34.9556 56.4715C34.5476 57.0756 34.1819 57.9685 33.7607 58.6323ZM38.5445 58.8587C38.8344 58.7684 39.3291 58.6342 39.7032 58.5335C40.2581 58.3884 40.5374 58.2259 41.0811 58.0446C41.4072 57.943 41.6432 57.5396 41.6255 57.2152C41.6298 56.9992 41.4713 56.516 41.3902 56.3704C40.8982 55.1484 39.9212 54.7811 38.7374 55.1658C38.2547 55.3003 37.7055 55.7576 37.4069 56.2918C37.0126 56.8121 36.8657 57.5654 37.0733 58.6017C37.3778 59.5919 37.6829 59.946 38.6469 60.361C39.2524 60.6971 40.4313 60.5643 41.0519 60.1324C41.2592 59.9685 41.3265 59.5977 41.068 59.3166C40.6175 59.0317 40.2688 59.6729 39.4683 59.4891C38.9425 59.3707 38.6327 59.2566 38.5445 58.8587ZM38.5893 56.5912C39.3572 55.9942 40.0761 56.0564 40.3701 56.9744C40.306 57.1771 39.9541 57.3742 39.677 57.4288C39.2554 57.5045 38.5188 57.73 38.3035 57.6898C38.2118 57.4719 38.2724 56.837 38.5893 56.5912ZM43.9048 54.9917C43.7991 54.8696 43.6086 54.7938 43.4284 54.8023C42.78 54.8135 42.7955 55.2459 42.67 56.1316C42.5429 57.1013 42.4749 58.7202 42.3715 59.7024C42.3306 59.9536 42.2771 60.2286 42.3223 60.3735C42.3794 60.5187 42.6286 60.6676 42.8083 60.6832C43.2637 60.7162 43.4922 60.6967 43.6202 60.2911C43.7741 59.7901 43.7888 58.4341 43.836 57.8709C43.84 57.6669 44.6667 57.1311 45.1614 56.9969C45.3668 56.9289 45.8853 56.8071 46.1385 56.7521C46.3796 56.6968 46.829 56.4297 46.7664 55.9483C46.7229 55.7194 46.4381 55.5578 46.1866 55.5288C45.7559 55.4603 45.2602 55.6426 44.9339 55.7561C44.6316 55.8702 44.2161 56.2461 43.918 56.1442C43.9498 55.7487 44.0287 55.4022 43.9048 54.9917ZM51.5023 56.5218C51.9455 56.5666 52.4601 56.0366 53.3628 55.9104C53.638 55.9519 54.0336 56.5838 53.7256 56.9858C53.5289 57.2219 52.4985 57.1296 51.9071 57.298C51.569 57.3993 51.1441 57.643 50.9729 57.8077C50.7037 58.0664 50.3835 58.4802 50.5029 59.1186C50.5335 59.3953 50.7685 59.652 50.9806 59.8482C51.4974 60.4225 52.033 60.6491 52.7355 60.939C52.9378 61.027 53.428 61.1207 53.6327 61.0887C53.9213 61.0584 54.2418 60.6327 54.3305 60.3944C54.5352 59.7503 54.6682 59.0928 54.8139 58.3995C54.922 57.7895 55.119 56.9293 55.0022 56.1588C54.9185 55.533 54.5219 54.9491 54.0931 54.7846C53.3406 54.6017 52.7477 54.8421 51.9843 55.2111C51.597 55.3715 51.1366 55.5904 51.1872 56.0715C51.2189 56.2882 51.276 56.4334 51.5023 56.5218ZM52.7767 58.2393C53.0049 58.2318 53.462 58.1808 53.6154 58.3159C53.6071 58.7358 53.5545 59.5749 53.1807 59.6636C52.6065 59.5682 51.7236 59.2987 51.7253 58.6026C51.91 58.3662 52.3203 58.2543 52.7767 58.2393ZM62.1684 55.472C62.0525 54.6536 62.2748 54.3339 62.3714 53.6997C62.4876 53.2819 62.5658 52.9714 61.9652 52.9955C61.0164 53.0248 61.0968 53.8185 60.9751 54.5123C60.9216 54.7873 60.8474 55.506 60.6406 55.6459C60.4461 55.7741 59.6185 55.7458 59.3653 55.8008C59.1235 55.892 58.9148 56.128 58.8743 56.3552C58.8103 56.558 58.8869 56.9316 59.1363 57.0685C59.4809 57.2433 60.3281 56.888 60.5859 57.2051C60.5242 57.9 60.5013 58.4517 60.4203 58.9062C60.404 59.1219 60.2421 60.0309 60.2018 60.2461C60.174 60.4376 59.8897 61.4642 59.9579 61.6576C60.0386 61.8272 60.4204 61.9428 60.6851 61.912C61.2866 61.8399 61.3849 60.5095 61.4769 60.1033C61.5176 59.864 61.6558 58.9426 61.6845 58.7031C61.7262 58.4159 61.8369 57.0618 62.0687 56.8743C62.2884 56.6866 63.2706 56.79 63.6463 56.6054C63.9009 56.4784 64.0517 56.1333 63.9861 55.8079C63.8772 55.2417 62.4509 55.7536 62.1684 55.472ZM66.0606 55.4288C65.955 55.3067 65.7644 55.2309 65.5842 55.2393C64.9359 55.2505 64.9514 55.6829 64.8259 56.5686C64.6987 57.5383 64.6308 59.1573 64.5274 60.1394C64.4864 60.3907 64.433 60.6657 64.4781 60.8106C64.5353 60.9558 64.7844 61.1047 64.9641 61.1202C65.4196 61.1532 65.648 61.1337 65.776 60.7282C65.9299 60.2271 65.9447 58.8711 65.9918 58.308C65.9958 58.104 66.8225 57.5682 67.3173 57.4339C67.5227 57.366 68.0412 57.2442 68.2943 57.1892C68.5354 57.1339 68.9848 56.8667 68.9223 56.3854C68.8788 56.1565 68.5939 55.9948 68.3424 55.9659C67.9117 55.8974 67.416 56.0796 67.0897 56.1932C66.7874 56.3073 66.3719 56.6831 66.0739 56.5812C66.1057 56.1858 66.1845 55.8393 66.0606 55.4288ZM70.6945 59.4929C70.9844 59.4026 71.4791 59.2684 71.8532 59.1677C72.4081 59.0227 72.6874 58.8601 73.2311 58.6788C73.5571 58.5772 73.7931 58.1738 73.7755 57.8494C73.7798 57.6334 73.6213 57.1502 73.5402 57.0046C73.0482 55.7826 72.0712 55.4153 70.8874 55.8C70.4047 55.9345 69.8555 56.3918 69.5569 56.926C69.1626 57.4463 69.0157 58.1996 69.2233 59.2359C69.5278 60.2261 69.8329 60.5802 70.7969 60.9953C71.4024 61.3313 72.5813 61.1985 73.2019 60.7666C73.4092 60.6027 73.4765 60.232 73.218 59.9508C72.7675 59.6659 72.4188 60.3071 71.6183 60.1233C71.0925 60.0049 70.7827 59.8908 70.6945 59.4929ZM70.7393 57.2254C71.5072 56.6284 72.2261 56.6906 72.52 57.6086C72.456 57.8114 72.1041 58.0085 71.827 58.063C71.4054 58.1387 70.6688 58.3642 70.4535 58.324C70.3618 58.1061 70.4224 57.4712 70.7393 57.2254ZM76.0563 57.9784C75.9158 57.1955 76.3653 55.7041 75.4019 55.8651C74.8479 55.9622 74.8671 56.8147 74.8296 57.4981C74.7768 58.3492 74.6424 59.0787 74.5418 59.9169C74.4429 60.6711 74.2836 61.4481 75.151 61.2852C75.4761 61.2316 75.8926 60.1956 76.1036 59.8397C76.4754 59.2469 76.3912 59.2573 77.0067 58.4772C77.2533 58.146 77.5022 57.6949 77.8751 57.6542C77.9364 58.1955 77.8698 58.5303 77.7865 59.1047C77.6909 59.691 77.6184 60.3257 77.6428 60.9143C77.9102 61.3516 78.7298 61.1758 78.8938 60.7709C78.9444 60.6399 78.9021 60.351 78.9064 60.135C78.9356 59.2594 79.2626 57.8976 79.2069 57.0684C79.1785 56.6837 78.9953 56.236 78.853 56.1492C78.3912 55.828 77.9169 56.1427 77.6005 56.3645C77.1864 56.6684 76.8429 57.0457 76.5711 57.4364C76.4351 57.6378 76.2763 57.7787 76.0563 57.9784ZM83.5073 62.3262C84.0688 62.4573 84.4097 62.212 84.4917 61.7095C84.6421 60.7763 84.5844 59.4429 84.6443 58.2318C84.7215 57.3572 84.8501 56.3155 84.9403 55.3931C85.026 54.6987 85.316 53.3841 84.706 53.2761C84.5152 53.2123 84.1179 53.2765 84.0308 53.4308C83.7428 54.0372 83.9852 55.7463 83.4737 56.1203C82.7058 56.1052 82.0321 56.1879 81.4138 56.4998C80.8558 56.8008 80.4631 57.2372 80.1765 57.7716C79.9402 58.187 79.7945 58.8803 79.9502 59.5075C80.1063 60.1107 80.7306 60.7111 81.2528 61.0095C81.8228 61.3208 82.4594 61.2973 83.1164 61.4543C83.2674 61.7093 83.234 62.1888 83.5073 62.3262ZM83.3593 58.8786C83.3159 59.2498 83.3128 60.0179 83.1876 60.2795C82.6211 60.4003 81.7531 59.9871 81.4142 59.5244C80.8534 58.7452 81.4645 57.581 82.354 57.5145C82.9068 57.4774 83.1976 57.3391 83.3731 57.5706C83.4521 57.8242 83.4028 58.4954 83.3593 58.8786Z"/><defs><clipPath id="clip0_155_12"><rect width="28.394" height="34.446" fill="#fff" transform="translate(47.1804 36.1802) rotate(-104.644)"/></clipPath></defs></svg>