<svg width="165" height="40" viewBox="0 0 165 40" fill="none" xmlns="http://www.w3.org/2000/svg">
<path d="M51.915 29V11.5455H63.4718V14.5881H55.6053V18.7472H62.7048V21.7898H55.6053V29H51.915ZM65.8859 29V15.9091H69.5166V29H65.8859ZM67.7097 14.2216C67.17 14.2216 66.7069 14.0426 66.3205 13.6847C65.9399 13.321 65.7495 12.8864 65.7495 12.3807C65.7495 11.8807 65.9399 11.4517 66.3205 11.0938C66.7069 10.7301 67.17 10.5483 67.7097 10.5483C68.2495 10.5483 68.7097 10.7301 69.0904 11.0938C69.4768 11.4517 69.67 11.8807 69.67 12.3807C69.67 12.8864 69.4768 13.321 69.0904 13.6847C68.7097 14.0426 68.2495 14.2216 67.7097 14.2216ZM76.0556 21.4318V29H72.4249V15.9091H75.8852V18.2188H76.0386C76.3283 17.4574 76.8141 16.8551 77.496 16.4119C78.1778 15.9631 79.0045 15.7386 79.9761 15.7386C80.8852 15.7386 81.6778 15.9375 82.3539 16.3352C83.0301 16.733 83.5556 17.3011 83.9306 18.0398C84.3056 18.7727 84.4931 19.6477 84.4931 20.6648V29H80.8624V21.3125C80.8681 20.5114 80.6636 19.8864 80.2488 19.4375C79.834 18.983 79.263 18.7557 78.5357 18.7557C78.0471 18.7557 77.6153 18.8608 77.2403 19.071C76.871 19.2812 76.5812 19.5881 76.371 19.9915C76.1664 20.3892 76.0613 20.8693 76.0556 21.4318ZM92.1785 29.2131C91.1842 29.2131 90.2836 28.9574 89.4768 28.446C88.6756 27.929 88.0393 27.1705 87.5677 26.1705C87.1018 25.1648 86.8688 23.9318 86.8688 22.4716C86.8688 20.9716 87.1103 19.7244 87.5933 18.7301C88.0762 17.7301 88.7183 16.983 89.5194 16.4886C90.3262 15.9886 91.2097 15.7386 92.17 15.7386C92.9029 15.7386 93.5137 15.8636 94.0024 16.1136C94.4967 16.358 94.8944 16.6648 95.1955 17.0341C95.5024 17.3977 95.7353 17.7557 95.8944 18.108H96.0052V11.5455H99.6274V29H96.0478V26.9034H95.8944C95.7239 27.267 95.4825 27.6278 95.17 27.9858C94.8631 28.3381 94.4626 28.6307 93.9683 28.8636C93.4796 29.0966 92.883 29.2131 92.1785 29.2131ZM93.3291 26.3239C93.9143 26.3239 94.4086 26.1648 94.812 25.8466C95.2211 25.5227 95.5336 25.071 95.7495 24.4915C95.9711 23.9119 96.0819 23.233 96.0819 22.4545C96.0819 21.6761 95.9739 21 95.758 20.4261C95.5421 19.8523 95.2296 19.4091 94.8205 19.0966C94.4114 18.7841 93.9143 18.6278 93.3291 18.6278C92.7325 18.6278 92.2296 18.7898 91.8205 19.1136C91.4114 19.4375 91.1018 19.8864 90.8916 20.4602C90.6813 21.0341 90.5762 21.6989 90.5762 22.4545C90.5762 23.2159 90.6813 23.8892 90.8916 24.4744C91.1075 25.054 91.4171 25.5085 91.8205 25.8381C92.2296 26.1619 92.7325 26.3239 93.3291 26.3239ZM109.576 15.9091V18.6364H101.692V15.9091H109.576ZM103.482 12.7727H107.112V24.9773C107.112 25.3125 107.164 25.5739 107.266 25.7614C107.368 25.9432 107.51 26.071 107.692 26.1449C107.879 26.2187 108.095 26.2557 108.34 26.2557C108.51 26.2557 108.681 26.2415 108.851 26.2131C109.022 26.179 109.152 26.1534 109.243 26.1364L109.814 28.8381C109.632 28.8949 109.377 28.9602 109.047 29.0341C108.718 29.1136 108.317 29.1619 107.845 29.179C106.97 29.2131 106.203 29.0966 105.544 28.8295C104.891 28.5625 104.382 28.1477 104.019 27.5852C103.655 27.0227 103.476 26.3125 103.482 25.4545V12.7727ZM111.941 29V15.9091H115.46V18.1932H115.597C115.835 17.3807 116.236 16.767 116.799 16.3523C117.361 15.9318 118.009 15.7216 118.742 15.7216C118.924 15.7216 119.12 15.733 119.33 15.7557C119.54 15.7784 119.725 15.8097 119.884 15.8494V19.071C119.713 19.0199 119.477 18.9744 119.176 18.9347C118.875 18.8949 118.6 18.875 118.35 18.875C117.816 18.875 117.338 18.9915 116.918 19.2244C116.503 19.4517 116.174 19.7699 115.929 20.179C115.691 20.5881 115.571 21.0597 115.571 21.5938V29H111.941ZM127.117 29.2557C125.771 29.2557 124.612 28.983 123.64 28.4375C122.674 27.8864 121.93 27.108 121.407 26.1023C120.884 25.0909 120.623 23.8949 120.623 22.5142C120.623 21.1676 120.884 19.9858 121.407 18.9688C121.93 17.9517 122.666 17.1591 123.615 16.5909C124.569 16.0227 125.688 15.7386 126.973 15.7386C127.836 15.7386 128.64 15.8778 129.384 16.1562C130.134 16.429 130.788 16.8409 131.345 17.392C131.907 17.9432 132.345 18.6364 132.657 19.4716C132.97 20.3011 133.126 21.2727 133.126 22.3864V23.3835H122.072V21.1335H129.708C129.708 20.6108 129.595 20.1477 129.367 19.7443C129.14 19.3409 128.825 19.0256 128.421 18.7983C128.024 18.5653 127.561 18.4489 127.032 18.4489C126.481 18.4489 125.992 18.5767 125.566 18.8324C125.146 19.0824 124.816 19.4205 124.578 19.8466C124.339 20.267 124.217 20.7358 124.211 21.2528V23.392C124.211 24.0398 124.33 24.5994 124.569 25.071C124.813 25.5426 125.157 25.9062 125.6 26.1619C126.044 26.4176 126.569 26.5455 127.177 26.5455C127.58 26.5455 127.95 26.4886 128.285 26.375C128.62 26.2614 128.907 26.0909 129.146 25.8636C129.384 25.6364 129.566 25.358 129.691 25.0284L133.049 25.25C132.879 26.0568 132.529 26.7614 132.001 27.3636C131.478 27.9602 130.802 28.4261 129.973 28.7614C129.149 29.0909 128.197 29.2557 127.117 29.2557ZM139.126 21.4318V29H135.495V15.9091H138.955V18.2188H139.109C139.399 17.4574 139.884 16.8551 140.566 16.4119C141.248 15.9631 142.075 15.7386 143.046 15.7386C143.955 15.7386 144.748 15.9375 145.424 16.3352C146.1 16.733 146.626 17.3011 147.001 18.0398C147.376 18.7727 147.563 19.6477 147.563 20.6648V29H143.933V21.3125C143.938 20.5114 143.734 19.8864 143.319 19.4375C142.904 18.983 142.333 18.7557 141.606 18.7557C141.117 18.7557 140.686 18.8608 140.311 19.071C139.941 19.2812 139.652 19.5881 139.441 19.9915C139.237 20.3892 139.132 20.8693 139.126 21.4318ZM155.249 29.2131C154.254 29.2131 153.354 28.9574 152.547 28.446C151.746 27.929 151.11 27.1705 150.638 26.1705C150.172 25.1648 149.939 23.9318 149.939 22.4716C149.939 20.9716 150.181 19.7244 150.664 18.7301C151.147 17.7301 151.789 16.983 152.59 16.4886C153.397 15.9886 154.28 15.7386 155.24 15.7386C155.973 15.7386 156.584 15.8636 157.073 16.1136C157.567 16.358 157.965 16.6648 158.266 17.0341C158.573 17.3977 158.806 17.7557 158.965 18.108H159.076V11.5455H162.698V29H159.118V26.9034H158.965C158.794 27.267 158.553 27.6278 158.24 27.9858C157.933 28.3381 157.533 28.6307 157.039 28.8636C156.55 29.0966 155.953 29.2131 155.249 29.2131ZM156.399 26.3239C156.985 26.3239 157.479 26.1648 157.882 25.8466C158.291 25.5227 158.604 25.071 158.82 24.4915C159.041 23.9119 159.152 23.233 159.152 22.4545C159.152 21.6761 159.044 21 158.828 20.4261C158.612 19.8523 158.3 19.4091 157.891 19.0966C157.482 18.7841 156.985 18.6278 156.399 18.6278C155.803 18.6278 155.3 18.7898 154.891 19.1136C154.482 19.4375 154.172 19.8864 153.962 20.4602C153.752 21.0341 153.647 21.6989 153.647 22.4545C153.647 23.2159 153.752 23.8892 153.962 24.4744C154.178 25.054 154.487 25.5085 154.891 25.8381C155.3 26.1619 155.803 26.3239 156.399 26.3239Z" fill="black"/>
<path fill-rule="evenodd" clip-rule="evenodd" d="M20 40C31.0457 40 40 31.0457 40 20C40 8.95431 31.0457 0 20 0C8.95429 0 0 8.95431 0 20C0 31.0457 8.95429 40 20 40ZM26.2393 9.31684C26.543 8.23805 25.4961 7.60013 24.54 8.2813L11.1931 17.7896C10.1562 18.5283 10.3193 20 11.4381 20H14.9527V19.9728H21.8025L16.2212 21.9421L13.7607 30.6832C13.457 31.762 14.5038 32.3999 15.46 31.7187L28.8069 22.2105C29.8438 21.4718 29.6806 20 28.5619 20H23.2321L26.2393 9.31684Z" fill="black"/>
</svg>
