<svg width="165" height="40" viewBox="0 0 165 40" fill="none" xmlns="http://www.w3.org/2000/svg">
<path d="M51.9155 29V11.5455H63.4723V14.5881H55.6058V18.7472H62.7053V21.7898H55.6058V29H51.9155ZM65.8864 29V15.9091H69.517V29H65.8864ZM67.7102 14.2216C67.1705 14.2216 66.7074 14.0426 66.321 13.6847C65.9403 13.321 65.75 12.8864 65.75 12.3807C65.75 11.8807 65.9403 11.4517 66.321 11.0938C66.7074 10.7301 67.1705 10.5483 67.7102 10.5483C68.25 10.5483 68.7102 10.7301 69.0909 11.0938C69.4773 11.4517 69.6705 11.8807 69.6705 12.3807C69.6705 12.8864 69.4773 13.321 69.0909 13.6847C68.7102 14.0426 68.25 14.2216 67.7102 14.2216ZM76.0561 21.4318V29H72.4254V15.9091H75.8857V18.2188H76.0391C76.3288 17.4574 76.8146 16.8551 77.4964 16.4119C78.1783 15.9631 79.005 15.7386 79.9766 15.7386C80.8857 15.7386 81.6783 15.9375 82.3544 16.3352C83.0305 16.733 83.5561 17.3011 83.9311 18.0398C84.3061 18.7727 84.4936 19.6477 84.4936 20.6648V29H80.8629V21.3125C80.8686 20.5114 80.6641 19.8864 80.2493 19.4375C79.8345 18.983 79.2635 18.7557 78.5362 18.7557C78.0476 18.7557 77.6158 18.8608 77.2408 19.071C76.8714 19.2812 76.5817 19.5881 76.3714 19.9915C76.1669 20.3892 76.0618 20.8693 76.0561 21.4318ZM92.179 29.2131C91.1847 29.2131 90.2841 28.9574 89.4773 28.446C88.6761 27.929 88.0398 27.1705 87.5682 26.1705C87.1023 25.1648 86.8693 23.9318 86.8693 22.4716C86.8693 20.9716 87.1108 19.7244 87.5938 18.7301C88.0767 17.7301 88.7188 16.983 89.5199 16.4886C90.3267 15.9886 91.2102 15.7386 92.1705 15.7386C92.9034 15.7386 93.5142 15.8636 94.0028 16.1136C94.4972 16.358 94.8949 16.6648 95.196 17.0341C95.5028 17.3977 95.7358 17.7557 95.8949 18.108H96.0057V11.5455H99.6278V29H96.0483V26.9034H95.8949C95.7244 27.267 95.483 27.6278 95.1705 27.9858C94.8636 28.3381 94.4631 28.6307 93.9688 28.8636C93.4801 29.0966 92.8835 29.2131 92.179 29.2131ZM93.3295 26.3239C93.9148 26.3239 94.4091 26.1648 94.8125 25.8466C95.2216 25.5227 95.5341 25.071 95.75 24.4915C95.9716 23.9119 96.0824 23.233 96.0824 22.4545C96.0824 21.6761 95.9744 21 95.7585 20.4261C95.5426 19.8523 95.2301 19.4091 94.821 19.0966C94.4119 18.7841 93.9148 18.6278 93.3295 18.6278C92.733 18.6278 92.2301 18.7898 91.821 19.1136C91.4119 19.4375 91.1023 19.8864 90.892 20.4602C90.6818 21.0341 90.5767 21.6989 90.5767 22.4545C90.5767 23.2159 90.6818 23.8892 90.892 24.4744C91.108 25.054 91.4176 25.5085 91.821 25.8381C92.2301 26.1619 92.733 26.3239 93.3295 26.3239ZM109.576 15.9091V18.6364H101.692V15.9091H109.576ZM103.482 12.7727H107.113V24.9773C107.113 25.3125 107.164 25.5739 107.266 25.7614C107.369 25.9432 107.511 26.071 107.692 26.1449C107.88 26.2187 108.096 26.2557 108.34 26.2557C108.511 26.2557 108.681 26.2415 108.852 26.2131C109.022 26.179 109.153 26.1534 109.244 26.1364L109.815 28.8381C109.633 28.8949 109.377 28.9602 109.048 29.0341C108.718 29.1136 108.317 29.1619 107.846 29.179C106.971 29.2131 106.204 29.0966 105.545 28.8295C104.891 28.5625 104.383 28.1477 104.019 27.5852C103.656 27.0227 103.477 26.3125 103.482 25.4545V12.7727ZM111.941 29V15.9091H115.461V18.1932H115.597C115.836 17.3807 116.237 16.767 116.799 16.3523C117.362 15.9318 118.009 15.7216 118.742 15.7216C118.924 15.7216 119.12 15.733 119.33 15.7557C119.54 15.7784 119.725 15.8097 119.884 15.8494V19.071C119.714 19.0199 119.478 18.9744 119.177 18.9347C118.876 18.8949 118.6 18.875 118.35 18.875C117.816 18.875 117.339 18.9915 116.918 19.2244C116.504 19.4517 116.174 19.7699 115.93 20.179C115.691 20.5881 115.572 21.0597 115.572 21.5938V29H111.941ZM127.118 29.2557C125.771 29.2557 124.612 28.983 123.641 28.4375C122.675 27.8864 121.93 27.108 121.408 26.1023C120.885 25.0909 120.624 23.8949 120.624 22.5142C120.624 21.1676 120.885 19.9858 121.408 18.9688C121.93 17.9517 122.666 17.1591 123.615 16.5909C124.57 16.0227 125.689 15.7386 126.973 15.7386C127.837 15.7386 128.641 15.8778 129.385 16.1562C130.135 16.429 130.788 16.8409 131.345 17.392C131.908 17.9432 132.345 18.6364 132.658 19.4716C132.97 20.3011 133.126 21.2727 133.126 22.3864V23.3835H122.072V21.1335H129.709C129.709 20.6108 129.595 20.1477 129.368 19.7443C129.141 19.3409 128.825 19.0256 128.422 18.7983C128.024 18.5653 127.561 18.4489 127.033 18.4489C126.482 18.4489 125.993 18.5767 125.567 18.8324C125.146 19.0824 124.817 19.4205 124.578 19.8466C124.339 20.267 124.217 20.7358 124.212 21.2528V23.392C124.212 24.0398 124.331 24.5994 124.57 25.071C124.814 25.5426 125.158 25.9062 125.601 26.1619C126.044 26.4176 126.57 26.5455 127.178 26.5455C127.581 26.5455 127.95 26.4886 128.286 26.375C128.621 26.2614 128.908 26.0909 129.146 25.8636C129.385 25.6364 129.567 25.358 129.692 25.0284L133.05 25.25C132.879 26.0568 132.53 26.7614 132.001 27.3636C131.479 27.9602 130.803 28.4261 129.973 28.7614C129.149 29.0909 128.197 29.2557 127.118 29.2557ZM139.126 21.4318V29H135.496V15.9091H138.956V18.2188H139.109C139.399 17.4574 139.885 16.8551 140.567 16.4119C141.249 15.9631 142.075 15.7386 143.047 15.7386C143.956 15.7386 144.749 15.9375 145.425 16.3352C146.101 16.733 146.626 17.3011 147.001 18.0398C147.376 18.7727 147.564 19.6477 147.564 20.6648V29H143.933V21.3125C143.939 20.5114 143.734 19.8864 143.32 19.4375C142.905 18.983 142.334 18.7557 141.607 18.7557C141.118 18.7557 140.686 18.8608 140.311 19.071C139.942 19.2812 139.652 19.5881 139.442 19.9915C139.237 20.3892 139.132 20.8693 139.126 21.4318ZM155.249 29.2131C154.255 29.2131 153.354 28.9574 152.548 28.446C151.746 27.929 151.11 27.1705 150.638 26.1705C150.173 25.1648 149.94 23.9318 149.94 22.4716C149.94 20.9716 150.181 19.7244 150.664 18.7301C151.147 17.7301 151.789 16.983 152.59 16.4886C153.397 15.9886 154.281 15.7386 155.241 15.7386C155.974 15.7386 156.585 15.8636 157.073 16.1136C157.567 16.358 157.965 16.6648 158.266 17.0341C158.573 17.3977 158.806 17.7557 158.965 18.108H159.076V11.5455H162.698V29H159.119V26.9034H158.965C158.795 27.267 158.553 27.6278 158.241 27.9858C157.934 28.3381 157.533 28.6307 157.039 28.8636C156.55 29.0966 155.954 29.2131 155.249 29.2131ZM156.4 26.3239C156.985 26.3239 157.479 26.1648 157.883 25.8466C158.292 25.5227 158.604 25.071 158.82 24.4915C159.042 23.9119 159.153 23.233 159.153 22.4545C159.153 21.6761 159.045 21 158.829 20.4261C158.613 19.8523 158.3 19.4091 157.891 19.0966C157.482 18.7841 156.985 18.6278 156.4 18.6278C155.803 18.6278 155.3 18.7898 154.891 19.1136C154.482 19.4375 154.173 19.8864 153.962 20.4602C153.752 21.0341 153.647 21.6989 153.647 22.4545C153.647 23.2159 153.752 23.8892 153.962 24.4744C154.178 25.054 154.488 25.5085 154.891 25.8381C155.3 26.1619 155.803 26.3239 156.4 26.3239Z" fill="white"/>
<circle cx="20.3164" cy="20" r="16" fill="black"/>
<path fill-rule="evenodd" clip-rule="evenodd" d="M20 40C31.0457 40 40 31.0457 40 20C40 8.95431 31.0457 0 20 0C8.95429 0 0 8.95431 0 20C0 31.0457 8.95429 40 20 40ZM26.2393 9.31684C26.543 8.23805 25.4961 7.60013 24.54 8.2813L11.1931 17.7896C10.1562 18.5283 10.3193 20 11.4381 20H14.9527V19.9728H21.8025L16.2212 21.9421L13.7607 30.6832C13.457 31.762 14.5038 32.3999 15.46 31.7187L28.8069 22.2105C29.8438 21.4718 29.6806 20 28.5619 20H23.2321L26.2393 9.31684Z" fill="#A8FF35"/>
</svg>
